# xmcd
#
# Track frame offsets:
#	150
#	34740
#	78624
#	99854
#	115034
#	133032
#	152951
#	171916
#	190508
#	208238
#	238372
#
# Disc length: 3797 seconds
#
# Revision: 0
# Processed by: cddbd v1.5.2PL0 Copyright (c) Steve Scherf et al.
# Submitted via: EZCDAudioConverter 2.1.7.1
#
DISCID=930ed30b
DTITLE=Verckys Et L'Orchestre Vévé - Congolese Funk, Afrobeat and Psychedelic R
DTITLE=umba 1969​-​1978
DYEAR=1900
DGENRE=
TTITLE0=Bassala Hot
TTITLE1=Ya Nini
TTITLE2=Cheka Sana
TTITLE3=Oui Verckys
TTITLE4=Nakobala Yo Denise
TTITLE5=Sex Vévé
TTITLE6=Sisa Motema
TTITLE7=Talali Talala
TTITLE8=Zonga Vonvon
TTITLE9=Nakomi Paralise
TTITLE10=Matinda Comono
EXTD=
EXTT0=
EXTT1=
EXTT2=
EXTT3=
EXTT4=
EXTT5=
EXTT6=
EXTT7=
EXTT8=
EXTT9=
EXTT10=
PLAYORDER=
